{"title":"The Private War of Major Benson (1955).avi","uid":5878849,"size":846765468,"categoryP":"video","categoryS":"movies","magnet":"?xt=urn:btih:19b189d034163efc1cafcefd3fe47934b547f7f8&amp;dn=The+Private+War+of+Major+Benson+%281955%29.avi&amp;tr=udp%3A%2F%2Ftracker.openbittorrent.com%3A80&amp;tr=udp%3A%2F%2Fopen.demonii.com%3A1337&amp;tr=udp%3A%2F%2Ftracker.coppersurfer.tk%3A6969&amp;tr=udp%3A%2F%2Fexodus.desync.com%3A6969","seeders":0,"leechers":1,"uploader":null,"files":1,"time":1286758863,"description":"A Major noted for advancing with his mouth before thinking is given a choice: to be drummed out of the Army, or take command of and shape up the ROTC program at Sheridan Academy before it fails its next inspection. At Sheridan he encounters three hundred pre-teen cadets who range from rascally to adorable, and a female doctor who has just the right prescription for him.\n\nCharlton Heston\t\tMaj. Bernard R. (Barney) Benson\nJulie Adams\t\t\tDr. Kay Lambert\nWilliam Demarest\t\tJohn\nMilburn Stone\t\t\tMaj. Gen. Wilton J. Ramsey\n\n   Video #0\n      ID : 0\n      Format : MPEG-4 Visual\n      Format profile : Simple@L3\n      Format settings, BVOP : No\n      Format settings, QPel : No\n      Format settings, GMC : No warppoints\n      Format settings, Matrix : Default (H.263)\n      Codec ID : XVID\n      Codec ID/Hint : XviD\n      Duration : 1h 44mn\n      Bit rate : 941 Kbps\n      Width : 720 pixels\n      Height : 480 pixels\n      Display aspect ratio : 1.500\n      Frame rate : 29.970 fps\n      Standard : NTSC\n      Resolution : 24 bits\n      Colorimetry : 4:2:0\n      Scan type : Progressive\n      Bits/(Pixel*Frame) : 0.091\n      Stream size : 705 MiB (87%)\n      Writing library : XviD 1.2.1 (UTC 2008-12-04)\n   Audio #1\n      ID : 1\n      Format : MPEG Audio\n      Format version : Version 1\n      Format profile : Layer 3\n      Codec ID : 55\n      Codec ID/Hint : MP3\n      Duration : 1h 44mn\n      Bit rate mode : Variable\n      Bit rate : 122 Kbps\n      Channel(s) : 2 channels\n      Sampling rate : 48.0 KHz\n      Resolution : 16 bits\n      Stream size : 91.7 MiB (11%)\n      Alignment : Aligned on interleaves\n","torrent":{"xt":"urn:btih:19b189d034163efc1cafcefd3fe47934b547f7f8","amp;dn":"The+Private+War+of+Major+Benson+%281955%29.avi","amp;tr":["udp%3A%2F%2Ftracker.openbittorrent.com%3A80","udp%3A%2F%2Fopen.demonii.com%3A1337","udp%3A%2F%2Ftracker.coppersurfer.tk%3A6969","udp%3A%2F%2Fexodus.desync.com%3A6969"],"infoHash":"19b189d034163efc1cafcefd3fe47934b547f7f8","infoHashBuffer":{"type":"Buffer","data":[25,177,137,208,52,22,62,252,28,175,206,253,63,228,121,52,181,71,247,248]},"announce":[],"urlList":[]}}